<?xml version="1.0" standalone="no"?><!DOCTYPE svg PUBLIC "-//W3C//DTD SVG 1.1//EN" "http://www.w3.org/Graphics/SVG/1.1/DTD/svg11.dtd"><svg t="1752549353441" class="icon" viewBox="0 0 1024 1024" version="1.1" xmlns="http://www.w3.org/2000/svg" p-id="8530" xmlns:xlink="http://www.w3.org/1999/xlink" width="16" height="16"><path d="M266.208 265.376a31.968 31.968 0 0 1 45.184 0L496 449.92l184.608-184.576a31.968 31.968 0 0 1 45.184 0l0.832 0.832a31.968 31.968 0 0 1 0 45.184L542.08 496l184.576 184.608a32 32 0 0 1 2.688 42.176l-2.688 3.008-0.832 0.832a31.968 31.968 0 0 1-45.184 0L496 542.08l-184.608 184.576a31.968 31.968 0 0 1-45.184 0l-0.832-0.832a31.968 31.968 0 0 1 0-45.184L449.92 496 265.376 311.392a32 32 0 0 1-2.688-42.176l2.688-3.008z" fill="#8a8a8a" p-id="8531"></path></svg>